<svg xmlns="http://www.w3.org/2000/svg" viewBox="0 0 175.216 175.552">
    <defs>
        <linearGradient id="a" x1="0.5" y1="0" x2="0.5" y2="1">
            <stop offset="0" stop-color="#20b038"/>
            <stop offset="1" stop-color="#60d66a"/>
        </linearGradient>
    </defs>
    <path fill="url(#a)" d="M87.608 0C39.249 0 0 39.249 0 87.608c0 19.148 6.184 37.071 16.888 51.629L5.831 175.552l37.829-11.057C57.789 173.449 72.169 177.889 87.608 177.889c48.359 0 87.608-39.249 87.608-87.608S135.967 0 87.608 0zm51.629 122.961c-2.045 5.831-11.057 10.419-18.148 11.695-4.828.638-11.057 1.149-32.171-6.901-27.024-8.694-44.411-30.126-45.878-31.533-.638-.638-6.184-8.229-6.184-15.784s3.821-11.057 5.184-12.614c1.149-1.149 2.683-1.787 3.821-1.787h3.821c1.149 0 2.683-.638 4.139 3.183 1.787 3.821 5.831 13.314 6.184 14.252.638.938.638 2.045.128 3.183-.51 1.149-.766 1.787-1.532 2.683l-2.298 2.683c-.766.766-1.532 1.532-.766 3.183 1.149 2.298 5.065 9.588 10.867 15.529 7.463 7.463 13.762 9.908 15.784 10.867 1.532.766 2.298.638 3.183-.383.766-1.149 3.821-4.456 4.828-5.831 1.149-1.149 2.298-1.149 3.821-.638l12.166 5.831c1.532.766 2.683 1.149 3.183 1.787.51.766.51 3.821-1.532 7.463z"/>
</svg>